HIERARCHY
ROOT hip
{
  OFFSET 0 0 0
  CHANNELS 6 Xposition Yposition Zposition Zrotation Yrotation Xrotation
  JOINT abdomen
  {
    OFFSET 0 20.6881 -0.73152
    CHANNELS 3 Zrotation Xrotation Yrotation
    JOINT chest
    {
      OFFSET 0 11.7043 -0.48768
      CHANNELS 3 Zrotation Xrotation Yrotation
      JOINT neck
      {
        OFFSET 0 22.1894 -2.19456
        CHANNELS 3 Zrotation Xrotation Yrotation
        JOINT head
        {
          OFFSET -0.24384 7.07133 1.2192
          CHANNELS 3 Zrotation Xrotation Yrotation
          JOINT leftEye
          {
            OFFSET 4.14528 8.04674 8.04672
            CHANNELS 3 Zrotation Xrotation Yrotation
            End Site
            {
              OFFSET 1 0 0
            }
          }
          JOINT rightEye
          {
            OFFSET -3.6576 8.04674 8.04672
            CHANNELS 3 Zrotation Xrotation Yrotation
            End Site
            {
              OFFSET 1 0 0
            }
          }
        }
      }
      JOINT rCollar
      {
        OFFSET -2.68224 19.2634 -4.8768
        CHANNELS 3 Zrotation Xrotation Yrotation
        JOINT rShldr
        {
          OFFSET -8.77824 -1.95073 1.46304
          CHANNELS 3 Zrotation Xrotation Yrotation
          JOINT rForeArm
          {
            OFFSET -28.1742 -1.7115 0.48768
            CHANNELS 3 Zrotation Xrotation Yrotation
            JOINT rHand
            {
              OFFSET -22.5879 0.773209 7.07136
              CHANNELS 3 Zrotation Xrotation Yrotation
              JOINT rThumb1
              {
                OFFSET -1.2192 -0.487915 3.41376
                CHANNELS 3 Zrotation Xrotation Yrotation
                JOINT rThumb2
                {
                  OFFSET -3.37035 -0.52449 3.41376
                  CHANNELS 3 Zrotation Xrotation Yrotation
                  End Site
                  {
                    OFFSET -1.78271 -1.18214 1.43049
                  }
                }
              }
              JOINT rIndex1
              {
                OFFSET -7.75947 0.938293 5.60832
                CHANNELS 3 Zrotation Xrotation Yrotation
                JOINT rIndex2
                {
                  OFFSET -2.54057 -0.884171 1.56538
                  CHANNELS 3 Zrotation Xrotation Yrotation
                  End Site
                  {
                    OFFSET -1.62519 -0.234802 1.16502
                  }
                }
              }
              JOINT rMid1
              {
                OFFSET -8.24714 1.18213 3.41376
                CHANNELS 3 Zrotation Xrotation Yrotation
                JOINT rMid2
                {
                  OFFSET -3.10165 -0.590103 1.0647
                  CHANNELS 3 Zrotation Xrotation Yrotation
                  End Site
                  {
                    OFFSET -2.48547 -0.328903 0.83742
                  }
                }
              }
              JOINT rRing1
              {
                OFFSET -8.82822 0.546677 1.51678
                CHANNELS 3 Zrotation Xrotation Yrotation
                JOINT rRing2
                {
                  OFFSET -2.60934 -0.819778 -0.0198488
                  CHANNELS 3 Zrotation Xrotation Yrotation
                  End Site
                  {
                    OFFSET -2.33842 -0.294052 0.168128
                  }
                }
              }
              JOINT rPinky1
              {
                OFFSET -8.27202 -0.0477905 -0.4584
                CHANNELS 3 Zrotation Xrotation Yrotation
                JOINT rPinky2
                {
                  OFFSET -1.82734 -0.647385 -0.700984
                  CHANNELS 3 Zrotation Xrotation Yrotation
                  End Site
                  {
                    OFFSET -1.69225 -0.51767 -0.607171
                  }
                }
              }
            }
          }
        }
      }
      JOINT lCollar
      {
        OFFSET 2.68224 19.2634 -4.8768
        CHANNELS 3 Zrotation Xrotation Yrotation
        JOINT lShldr
        {
          OFFSET 8.77824 -1.95073 1.46304
          CHANNELS 3 Zrotation Xrotation Yrotation
          JOINT lForeArm
          {
            OFFSET 28.1742 -1.7115 0.48768
            CHANNELS 3 Zrotation Xrotation Yrotation
            JOINT lHand
            {
              OFFSET 22.5879 0.773209 7.07136
              CHANNELS 3 Zrotation Xrotation Yrotation
              JOINT lThumb1
              {
                OFFSET 1.2192 -0.487915 3.41376
                CHANNELS 3 Zrotation Xrotation Yrotation
                JOINT lThumb2
                {
                  OFFSET 3.37035 -0.52449 3.41376
                  CHANNELS 3 Zrotation Xrotation Yrotation
                  End Site
                  {
                    OFFSET 1.78271 -1.18214 1.43049
                  }
                }
              }
              JOINT lIndex1
              {
                OFFSET 7.75947 0.938293 5.60832
                CHANNELS 3 Zrotation Xrotation Yrotation
                JOINT lIndex2
                {
                  OFFSET 2.54057 -0.884171 1.56538
                  CHANNELS 3 Zrotation Xrotation Yrotation
                  End Site
                  {
                    OFFSET 1.62519 -0.234802 1.16502
                  }
                }
              }
              JOINT lMid1
              {
                OFFSET 8.24714 1.18213 3.41376
                CHANNELS 3 Zrotation Xrotation Yrotation
                JOINT lMid2
                {
                  OFFSET 3.10165 -0.590103 1.0647
                  CHANNELS 3 Zrotation Xrotation Yrotation
                  End Site
                  {
                    OFFSET 2.48547 -0.328903 0.83742
                  }
                }
              }
              JOINT lRing1
              {
                OFFSET 8.82822 0.546677 1.51678
                CHANNELS 3 Zrotation Xrotation Yrotation
                JOINT lRing2
                {
                  OFFSET 2.60934 -0.819778 -0.0198488
                  CHANNELS 3 Zrotation Xrotation Yrotation
                  End Site
                  {
                    OFFSET 2.33842 -0.294052 0.168128
                  }
                }
              }
              JOINT lPinky1
              {
                OFFSET 8.27202 -0.0477905 -0.4584
                CHANNELS 3 Zrotation Xrotation Yrotation
                JOINT lPinky2
                {
                  OFFSET 1.82734 -0.647385 -0.700984
                  CHANNELS 3 Zrotation Xrotation Yrotation
                  End Site
                  {
                    OFFSET 1.69225 -0.51767 -0.607171
                  }
                }
              }
            }
          }
        }
      }
    }
  }
  JOINT rButtock
  {
    OFFSET -8.77824 4.35084 1.2192
    CHANNELS 3 Zrotation Xrotation Yrotation
    JOINT rThigh
    {
      OFFSET 0 -1.70687 -2.19456
      CHANNELS 3 Zrotation Xrotation Yrotation
      JOINT rShin
      {
        OFFSET 0 -36.8199 0.73152
        CHANNELS 3 Zrotation Xrotation Yrotation
        JOINT rFoot
        {
          OFFSET 0.73152 -45.1104 -5.12064
          CHANNELS 3 Zrotation Xrotation Yrotation
          End Site
          {
            OFFSET -1.1221 -3.69964 12.103
          }
        }
      }
    }
  }
  JOINT lButtock
  {
    OFFSET 8.77824 4.35084 1.2192
    CHANNELS 3 Zrotation Xrotation Yrotation
    JOINT lThigh
    {
      OFFSET 0 -1.70687 -2.19456
      CHANNELS 3 Zrotation Xrotation Yrotation
      JOINT lShin
      {
        OFFSET 0 -36.8199 0.73152
        CHANNELS 3 Zrotation Xrotation Yrotation
        JOINT lFoot
        {
          OFFSET -0.73152 -45.1104 -5.12064
          CHANNELS 3 Zrotation Xrotation Yrotation
          End Site
          {
            OFFSET 1.1221 -3.69964 12.103
          }
        }
      }
    }
  }
}
MOTION
Frames:	6
Frame Time:	0.03333
11.807110001245746 68.5073971748352 -23.4012999542756 -8.028477668762207 65.40270233154297 -5.479997634887695 1.7302789688110352 15.53239917755127 11.007898330688477 -0.8964493870735168 -10.259796142578125 3.107569456100464 -5.017829418182373 11.15191650390625 -4.4799957275390625 4.645410537719727 -23.455598831176758 -7.474254131317139 -0.0 0.0 -0.0 -0.0 0.0 -0.0 -0.0 0.0 -0.0 15.983794212341309 60.35338592529297 59.27510452270508 -25.562389373779297 -47.05339813232422 97.8623046875 -11.260828018188477 -64.96593475341797 -17.563993453979492 -0.0 0.0 -0.0 -0.0 0.0 -0.0 -0.0 0.0 -0.0 7.730876445770264 5.474895000457764 0.41732463240623474 -0.0 0.0 -0.0 2.9054994583129883 0.9650753736495972 0.10300876200199127 -0.0 0.0 -0.0 10.278595924377441 0.7317469120025635 0.026285577565431595 -0.0 0.0 -0.0 2.221662759780884 -0.7335850596427917 -0.20831839740276337 -0.0 0.0 -0.0 -72.47749328613281 20.30228614807129 -21.678503036499023 27.637306213378906 -42.012794494628906 -87.61039733886719 0.08508308976888657 -1.3124653100967407 0.2027290016412735 -0.0 0.0 -0.0 -0.0 0.0 -0.0 -0.0 0.0 -0.0 -7.730876445770264 5.474895000457764 -0.41732463240623474 -0.0 0.0 -0.0 -2.9054994583129883 0.9650753736495972 -0.10300876200199127 -0.0 0.0 -0.0 -10.278595924377441 0.7317469120025635 -0.026285577565431595 -0.0 0.0 -0.0 -2.221662759780884 -0.7335850596427917 0.20831839740276337 -0.0 0.0 -0.0 3.783191204071045 -39.67180633544922 -7.257054328918457 -2.689182758331299 74.76457977294922 3.8501203060150146 -15.779788970947266 -12.976798057556152 -35.39900207519531 -0.0 0.0 -0.0 36.75159454345703 -54.517791748046875 27.956798553466797 9.26352310180664 83.94688415527344 -9.548287391662598 2.7256741523742676 4.303791046142578 23.25299835205078
12.129350010218332 68.4211015701294 -23.352299953694455 -11.946486473083496 70.19979095458984 -9.770015716552734 0.4159698486328125 15.913307189941406 11.771892547607422 -1.1466171741485596 -10.383700370788574 3.2470309734344482 -6.498702526092529 12.565093040466309 -6.715236663818359 8.160285949707031 -24.45888900756836 -11.122294425964355 -0.0 0.0 -0.0 -0.0 0.0 -0.0 -0.0 0.0 -0.0 9.67662239074707 53.520606994628906 66.92269897460938 -25.109094619750977 -47.82229232788086 99.55587768554688 -7.870780944824219 -59.4081916809082 -13.751988410949707 -0.0 0.0 -0.0 -0.0 0.0 -0.0 -0.0 0.0 -0.0 7.730876445770264 5.474895000457764 0.41732463240623474 -0.0 0.0 -0.0 2.9054994583129883 0.9650753736495972 0.10300876200199127 -0.0 0.0 -0.0 10.278595924377441 0.7317469120025635 0.026285577565431595 -0.0 0.0 -0.0 2.221662759780884 -0.7335850596427917 -0.20831839740276337 -0.0 0.0 -0.0 -71.3147964477539 27.376298904418945 -21.86650276184082 27.837505340576172 -41.196998596191406 -86.0946044921875 0.014056478627026081 -3.3828084468841553 0.47601762413978577 -0.0 0.0 -0.0 -0.0 0.0 -0.0 -0.0 0.0 -0.0 -7.730876445770264 5.474895000457764 -0.41732463240623474 -0.0 0.0 -0.0 -2.9054994583129883 0.9650753736495972 -0.10300876200199127 -0.0 0.0 -0.0 -10.278595924377441 0.7317469120025635 -0.026285577565431595 -0.0 0.0 -0.0 -2.221662759780884 -0.7335850596427917 0.20831839740276337 -0.0 0.0 -0.0 2.812993288040161 -38.402793884277344 -9.669474601745605 -2.672107696533203 74.762939453125 3.8603663444519043 -16.787195205688477 -13.468505859375 -36.47259521484375 -0.0 0.0 -0.0 34.83100128173828 -53.84829330444336 26.518798828125 6.758329391479492 82.07907104492188 -7.102843761444092 3.8189949989318848 0.8828495144844055 21.892410278320312
12.386330011213431 68.09250116348267 -23.41429995431099 -16.70939826965332 75.19869995117188 -14.459994316101074 -0.21132488548755646 15.846996307373047 12.076290130615234 -0.5984286069869995 -10.486406326293945 3.353847026824951 -7.9999823570251465 13.77419376373291 -8.282505989074707 9.056617736816406 -25.84270668029785 -14.015697479248047 -0.0 0.0 -0.0 -0.0 0.0 -0.0 -0.0 0.0 -0.0 3.9456515312194824 45.581302642822266 72.83160400390625 -24.276302337646484 -49.091796875 102.41699981689453 -5.856805801391602 -54.574684143066406 -11.369370460510254 -0.0 0.0 -0.0 -0.0 0.0 -0.0 -0.0 0.0 -0.0 7.730876445770264 5.474895000457764 0.41732463240623474 -0.0 0.0 -0.0 2.9054994583129883 0.9650753736495972 0.10300876200199127 -0.0 0.0 -0.0 10.278595924377441 0.7317469120025635 0.026285577565431595 -0.0 0.0 -0.0 2.221662759780884 -0.7335850596427917 -0.20831839740276337 -0.0 0.0 -0.0 -68.88968658447266 34.81010818481445 -23.739492416381836 27.999000549316406 -40.39310073852539 -84.6502914428711 0.08751960098743439 -11.444646835327148 1.6157164573669434 -0.0 0.0 -0.0 -0.0 0.0 -0.0 -0.0 0.0 -0.0 -7.730876445770264 5.474895000457764 -0.41732463240623474 -0.0 0.0 -0.0 -2.9054994583129883 0.9650753736495972 -0.10300876200199127 -0.0 0.0 -0.0 -10.278595924377441 0.7317469120025635 -0.026285577565431595 -0.0 0.0 -0.0 -2.221662759780884 -0.7335850596427917 0.20831839740276337 -0.0 0.0 -0.0 1.7203423976898193 -37.80450439453125 -11.54656982421875 -2.733363628387451 75.11511993408203 3.9770724773406982 -17.88559913635254 -15.036406517028809 -36.5010986328125 -0.0 0.0 -0.0 33.33610153198242 -54.63770294189453 25.19570541381836 5.500333786010742 80.56709289550781 -5.850579261779785 4.294726848602295 -1.2559919357299805 20.63149642944336
12.644660010846565 67.77750253677368 -23.655299950041808 -26.313695907592773 79.94651794433594 -23.26997947692871 -0.5845962166786194 15.516580581665039 12.029204368591309 -0.03481796756386757 -10.559806823730469 3.3721141815185547 -9.142023086547852 14.76960563659668 -9.475303649902344 9.17011833190918 -27.289600372314453 -16.350200653076172 -0.0 0.0 -0.0 -0.0 0.0 -0.0 -0.0 0.0 -0.0 -0.6968535780906677 37.30610275268555 77.59590148925781 -23.25010871887207 -50.306800842285156 105.57600402832031 -4.755453109741211 -51.027400970458984 -9.990360260009766 -0.0 0.0 -0.0 -0.0 0.0 -0.0 -0.0 0.0 -0.0 7.730876445770264 5.474895000457764 0.41732463240623474 -0.0 0.0 -0.0 2.9054994583129883 0.9650753736495972 0.10300876200199127 -0.0 0.0 -0.0 10.278595924377441 0.7317469120025635 0.026285577565431595 -0.0 0.0 -0.0 2.221662759780884 -0.7335850596427917 -0.20831839740276337 -0.0 0.0 -0.0 -65.17800903320312 41.36229705810547 -26.867599487304688 28.152490615844727 -39.51679992675781 -83.06029510498047 0.42589321732521057 -18.23279571533203 2.653613805770874 -0.0 0.0 -0.0 -0.0 0.0 -0.0 -0.0 0.0 -0.0 -7.730876445770264 5.474895000457764 -0.41732463240623474 -0.0 0.0 -0.0 -2.9054994583129883 0.9650753736495972 -0.10300876200199127 -0.0 0.0 -0.0 -10.278595924377441 0.7317469120025635 -0.026285577565431595 -0.0 0.0 -0.0 -2.221662759780884 -0.7335850596427917 0.20831839740276337 -0.0 0.0 -0.0 0.4462159276008606 -37.53910446166992 -13.183476448059082 -2.816612720489502 75.52019500732422 4.1105875968933105 -18.705595016479492 -16.683103561401367 -36.06149673461914 -0.0 0.0 -0.0 32.017215728759766 -56.11899185180664 24.331018447875977 4.756958484649658 79.33824157714844 -5.093331813812256 4.528693199157715 -2.9497549533843994 19.37549591064453
13.029580008151243 67.5108015537262 -23.906299952068366 -46.209075927734375 84.01358032226562 -42.09996032714844 -0.8633459210395813 14.792302131652832 11.495383262634277 -0.1976534128189087 -10.510682106018066 3.1910245418548584 -9.410778999328613 15.335906982421875 -10.46159839630127 9.882862091064453 -28.49639892578125 -18.143592834472656 -0.0 0.0 -0.0 -0.0 0.0 -0.0 -0.0 0.0 -0.0 -3.3807015419006348 29.457805633544922 81.0530014038086 -22.448881149291992 -51.166900634765625 107.87399291992188 -5.162597179412842 -52.256107330322266 -10.471077919006348 -0.0 0.0 -0.0 -0.0 0.0 -0.0 -0.0 0.0 -0.0 7.730876445770264 5.474895000457764 0.41732463240623474 -0.0 0.0 -0.0 2.9054994583129883 0.9650753736495972 0.10300876200199127 -0.0 0.0 -0.0 10.278595924377441 0.7317469120025635 0.026285577565431595 -0.0 0.0 -0.0 2.221662759780884 -0.7335850596427917 -0.20831839740276337 -0.0 0.0 -0.0 -61.952598571777344 45.11579895019531 -29.56029510498047 28.31900405883789 -38.327796936035156 -80.89579772949219 0.17560389637947083 -13.138636589050293 1.870562195777893 -0.0 0.0 -0.0 -0.0 0.0 -0.0 -0.0 0.0 -0.0 -7.730876445770264 5.474895000457764 -0.41732463240623474 -0.0 0.0 -0.0 -2.9054994583129883 0.9650753736495972 -0.10300876200199127 -0.0 0.0 -0.0 -10.278595924377441 0.7317469120025635 -0.026285577565431595 -0.0 0.0 -0.0 -2.221662759780884 -0.7335850596427917 0.20831839740276337 -0.0 0.0 -0.0 -0.995233952999115 -37.46309280395508 -14.697497367858887 -2.8573732376098633 75.697509765625 4.177929878234863 -18.987409591674805 -17.647592544555664 -35.52850341796875 -0.0 0.0 -0.0 31.251310348510742 -58.290496826171875 25.011016845703125 4.423079013824463 78.6487808227539 -4.73606538772583 4.641160011291504 -4.264432430267334 18.322795867919922
13.655029985966394 67.49230027198792 -24.06329994846601 -86.27391052246094 85.9619140625 -81.26506042480469 -1.0806738138198853 14.107736587524414 10.805230140686035 -0.4706646800041199 -10.397706985473633 2.958430528640747 -9.369239807128906 15.822395324707031 -11.249283790588379 10.813096046447754 -29.663192749023438 -19.494504928588867 -0.0 0.0 -0.0 -0.0 0.0 -0.0 -0.0 0.0 -0.0 -5.0547637939453125 22.697200775146484 84.26168823242188 -21.98829460144043 -51.634098052978516 109.1360092163086 -5.777345180511475 -54.17627716064453 -11.238195419311523 -0.0 0.0 -0.0 -0.0 0.0 -0.0 -0.0 0.0 -0.0 7.730876445770264 5.474895000457764 0.41732463240623474 -0.0 0.0 -0.0 2.9054994583129883 0.9650753736495972 0.10300876200199127 -0.0 0.0 -0.0 10.278595924377441 0.7317469120025635 0.026285577565431595 -0.0 0.0 -0.0 2.221662759780884 -0.7335850596427917 -0.20831839740276337 -0.0 0.0 -0.0 -59.354286193847656 47.40509033203125 -31.745498657226562 28.389699935913086 -37.20909881591797 -79.05119323730469 0.07326008379459381 -6.926181316375732 0.9789852499961853 -0.0 0.0 -0.0 -0.0 0.0 -0.0 -0.0 0.0 -0.0 -7.730876445770264 5.474895000457764 -0.41732463240623474 -0.0 0.0 -0.0 -2.9054994583129883 0.9650753736495972 -0.10300876200199127 -0.0 0.0 -0.0 -10.278595924377441 0.7317469120025635 -0.026285577565431595 -0.0 0.0 -0.0 -2.221662759780884 -0.7335850596427917 0.20831839740276337 -0.0 0.0 -0.0 -2.4949209690093994 -37.38179016113281 -16.33539581298828 -2.9046525955200195 75.85311889648438 4.218020439147949 -18.73619842529297 -17.770292282104492 -34.955196380615234 -0.0 0.0 -0.0 30.91363525390625 -60.06210708618164 26.205656051635742 4.192160129547119 78.11448669433594 -4.481018543243408 4.654987335205078 -5.415951728820801 17.20319938659668
